<?xml version="1.0" standalone="no"?>
<!DOCTYPE svg PUBLIC "-//W3C//DTD SVG 20010904//EN"
 "http://www.w3.org/TR/2001/REC-SVG-20010904/DTD/svg10.dtd">
<svg version="1.0" xmlns="http://www.w3.org/2000/svg"
 width="512.000000pt" height="512.000000pt" viewBox="0 0 512.000000 512.000000"
 preserveAspectRatio="xMidYMid meet">
<metadata>
Created by potrace 1.16, written by Peter Selinger 2001-2019
</metadata>
<g transform="translate(0.000000,512.000000) scale(0.100000,-0.100000)"
fill="#000000" stroke="none">
<path d="M223 4948 c-129 -128 -176 -182 -183 -208 -15 -54 -12 -1445 3 -1490
20 -57 34 -59 480 -59 l397 -1 0 -118 0 -117 -48 -17 c-59 -21 -132 -90 -164
-156 -22 -44 -23 -60 -26 -282 -4 -258 0 -286 51 -363 33 -49 113 -111 160
-122 24 -6 27 -12 27 -46 l0 -39 -233 0 c-127 0 -248 -4 -267 -10 -50 -14
-366 -331 -380 -380 -14 -49 -13 -1433 0 -1482 6 -21 19 -42 30 -48 12 -6 285
-10 777 -10 l757 0 178 178 178 178 0 262 0 262 44 0 c41 0 45 -2 51 -29 15
-71 110 -166 195 -196 61 -22 479 -22 540 0 85 30 180 125 195 196 l7 29 84 0
84 0 0 -420 c0 -407 1 -421 20 -440 20 -20 33 -20 782 -20 l762 0 173 172
c129 128 176 182 183 208 15 54 12 1445 -3 1490 -20 57 -34 59 -479 59 l-398
1 0 39 c0 34 3 40 27 46 47 11 127 73 160 122 51 77 55 105 51 363 -3 222 -4
238 -26 282 -32 66 -105 135 -164 156 l-48 17 0 117 0 118 233 0 c127 0 248 5
267 10 49 14 366 330 380 380 14 48 13 1432 0 1482 -6 21 -19 42 -30 48 -12 6
-285 10 -777 10 l-757 0 -178 -178 -178 -178 0 -257 0 -257 -83 0 -82 0 -23
49 c-30 67 -102 136 -171 163 -52 21 -71 23 -281 23 -210 0 -229 -2 -281 -23
-70 -28 -151 -106 -175 -168 -16 -43 -18 -44 -60 -44 l-44 0 0 415 c0 402 -1
416 -20 435 -20 20 -33 20 -782 20 l-762 0 -173 -172z m1372 -68 l-80 -80
-595 0 -595 0 80 80 80 80 595 0 595 0 -80 -80z m3120 0 l-80 -80 -595 0 -595
0 80 80 80 80 595 0 595 0 -80 -80z m-2915 -340 l0 -290 -39 0 c-48 0 -92 -15
-108 -37 -11 -14 -13 29 -13 222 l0 240 77 77 c43 43 79 78 80 78 2 0 3 -130
3 -290z m3045 -970 l-75 -75 0 595 0 595 73 73 72 73 3 -593 2 -593 -75 -75z
m-3365 430 l0 -640 -640 0 -640 0 0 640 0 640 640 0 640 0 0 -640z m3120 0 l0
-640 -640 0 -640 0 0 640 0 640 640 0 640 0 0 -640z m-1888 309 c21 -5 50 -21
65 -34 26 -23 27 -24 7 -25 -73 -1 -120 -53 -103 -113 11 -40 36 -56 88 -57
l44 0 -19 -21 c-41 -45 -62 -49 -274 -49 -212 0 -233 4 -274 49 l-19 21 43 0
c58 0 90 29 90 82 0 48 -26 76 -81 84 -40 7 -40 7 -21 26 37 38 89 47 257 48
88 0 177 -5 197 -11z m-970 -229 l58 0 0 -218 0 -217 -80 -80 -80 -80 0 318 0
318 22 -21 c17 -15 35 -20 80 -20z m313 -29 c7 -34 55 -103 94 -137 14 -12 46
-33 71 -46 44 -22 53 -23 300 -23 249 0 256 1 302 24 73 38 168 149 168 198 0
10 23 13 85 13 l85 0 0 -416 c0 -261 4 -422 10 -434 19 -35 73 -40 478 -40
l392 0 0 -118 0 -117 -48 -17 c-59 -21 -132 -90 -164 -156 -22 -44 -23 -60
-26 -282 -4 -258 0 -286 51 -363 33 -49 113 -111 160 -122 24 -6 27 -12 27
-46 l0 -39 -232 0 c-128 0 -249 -5 -268 -10 -26 -7 -80 -54 -208 -183 l-172
-173 0 -257 0 -257 -83 0 -82 0 -22 49 c-46 98 -139 165 -255 182 -83 12 -328
11 -402 -1 -113 -18 -204 -85 -249 -181 -21 -47 -23 -49 -64 -49 l-43 0 0 411
c0 257 -4 417 -10 429 -19 35 -73 40 -477 40 l-393 0 0 39 c0 34 3 40 27 46
47 11 127 73 160 122 51 77 55 105 51 363 -3 222 -4 238 -26 282 -32 66 -105
135 -164 156 l-48 17 0 117 0 118 233 0 c127 0 248 5 267 10 26 7 80 54 208
183 l172 173 0 262 0 262 44 0 c41 0 45 -2 51 -29z m-1110 -1395 c29 -22 87
-20 113 4 17 16 22 32 22 67 l0 46 21 -19 c50 -45 54 -66 54 -274 0 -208 -4
-229 -54 -274 l-21 -19 0 46 c0 61 -24 87 -80 87 -56 0 -80 -26 -80 -87 l0
-46 -21 19 c-49 45 -54 67 -54 264 0 102 3 197 7 212 5 14 20 41 35 59 l28 33
5 -52 c4 -35 12 -56 25 -66z m3120 0 c29 -22 87 -20 113 4 17 16 22 32 22 67
l0 46 21 -19 c50 -45 54 -66 54 -274 0 -208 -4 -229 -54 -274 l-21 -19 0 46
c0 61 -24 87 -80 87 -56 0 -80 -26 -80 -87 l0 -46 -21 19 c-49 45 -54 67 -54
264 0 102 3 197 7 212 5 14 20 41 35 59 l28 33 5 -52 c4 -35 12 -56 25 -66z
m-3145 -955 c0 -41 5 -65 16 -75 14 -15 -13 -16 -293 -16 l-307 0 74 75 74 75
218 0 218 0 0 -59z m680 -16 l-74 -75 -239 0 c-217 0 -237 1 -223 16 11 10 16
34 16 75 l0 59 297 0 297 0 -74 -75z m2440 16 c0 -41 5 -65 16 -75 14 -15 -13
-16 -293 -16 l-307 0 74 75 74 75 218 0 218 0 0 -59z m680 -16 l-74 -75 -239
0 c-217 0 -237 1 -223 16 11 10 16 34 16 75 l0 59 297 0 297 0 -74 -75z
m-2920 -345 l0 -290 -32 0 c-49 0 -106 -19 -117 -38 -7 -12 -10 58 -11 223 l0
240 77 77 c43 43 79 78 80 78 2 0 3 -130 3 -290z m3045 -970 l-75 -75 0 595 0
595 73 73 72 73 3 -593 2 -593 -75 -75z m-3365 430 l0 -640 -640 0 -640 0 0
640 0 640 640 0 640 0 0 -640z m3120 0 l0 -640 -640 0 -640 0 0 640 0 640 640
0 640 0 0 -640z m-1854 298 c17 -9 36 -23 43 -31 10 -13 5 -16 -30 -22 -55
-10 -79 -35 -79 -85 0 -56 26 -80 87 -80 l46 0 -19 -21 c-45 -50 -66 -54 -274
-54 -208 0 -229 4 -274 54 l-19 21 46 0 c59 0 87 27 87 82 0 48 -25 74 -79 83
-35 6 -40 9 -30 21 37 45 86 53 289 51 141 -2 181 -6 206 -19z m-1006 -218
l60 0 0 -218 0 -217 -80 -80 -80 -80 0 318 0 317 20 -20 c16 -16 33 -20 80
-20z"/>
</g>
</svg>
