<?xml version="1.0" standalone="no"?>
<!DOCTYPE svg PUBLIC "-//W3C//DTD SVG 20010904//EN"
 "http://www.w3.org/TR/2001/REC-SVG-20010904/DTD/svg10.dtd">
<svg version="1.0" xmlns="http://www.w3.org/2000/svg"
 width="344.000000pt" height="344.000000pt" viewBox="0 0 344.000000 344.000000"
 preserveAspectRatio="xMidYMid meet">
<metadata>
Created by potrace 1.16, written by Peter Selinger 2001-2019
</metadata>
<g transform="translate(0.000000,344.000000) scale(0.100000,-0.100000)"
fill="#000000" stroke="none">
<path d="M2000 3330 c-179 -28 -348 -151 -429 -310 -20 -41 -40 -86 -44 -99
l-6 -24 -36 27 c-19 15 -61 39 -93 54 -52 25 -67 27 -182 27 -120 0 -128 -1
-193 -32 -76 -36 -166 -116 -204 -181 -54 -91 -81 -250 -53 -303 9 -17 7 -19
-17 -19 -72 -1 -185 -86 -231 -175 -24 -44 -27 -62 -27 -145 0 -83 3 -101 27
-145 32 -62 103 -129 166 -158 43 -20 68 -22 274 -25 l226 -4 4 -81 c2 -66 7
-88 26 -115 49 -68 40 -67 512 -67 472 0 463 -1 512 67 19 27 24 49 26 115 l4
81 226 4 c224 3 228 3 283 31 114 56 189 173 189 297 0 162 -119 298 -283 325
-35 6 -38 9 -32 28 39 121 46 165 42 262 -6 127 -33 212 -98 309 -104 157
-267 249 -458 260 -42 3 -101 1 -131 -4z m215 -125 c83 -22 150 -61 217 -126
157 -154 186 -405 68 -589 -17 -26 -30 -58 -30 -73 0 -46 23 -57 116 -57 94 0
142 -15 187 -58 112 -106 78 -287 -65 -346 -30 -13 -80 -16 -242 -16 l-204 0
-4 138 c-3 125 -5 140 -26 170 -49 68 -40 67 -512 67 -472 0 -463 1 -512 -67
-21 -30 -23 -45 -26 -170 l-4 -138 -204 0 c-223 0 -252 6 -307 58 -112 106
-78 287 65 346 21 9 64 16 97 16 51 0 62 3 75 22 22 31 20 47 -10 104 -22 42
-26 58 -21 110 9 113 88 218 205 272 45 20 72 26 133 26 66 0 86 -5 142 -32
60 -30 121 -84 158 -141 11 -17 24 -24 47 -24 45 0 54 13 63 86 24 196 153
358 330 412 30 9 59 18 64 20 29 9 148 3 200 -10z m-89 -1019 c18 -14 19 -28
19 -251 0 -223 -1 -237 -19 -251 -29 -21 -783 -21 -812 0 -18 14 -19 28 -19
251 0 223 1 237 19 251 29 21 783 21 812 0z"/>
<path d="M2092 3064 l3 -59 40 -6 c63 -11 92 -25 140 -70 43 -40 85 -123 85
-169 0 -18 7 -20 61 -20 l61 0 -7 47 c-26 174 -165 313 -329 330 l-57 6 3 -59z"/>
<path d="M1128 2786 c-79 -28 -130 -81 -153 -160 -16 -51 -19 -48 66 -60 35
-4 37 -2 52 34 15 40 66 80 100 80 14 0 17 10 17 60 0 56 -2 60 -22 60 -13 -1
-40 -7 -60 -14z"/>
<path d="M1880 2095 l0 -55 50 0 50 0 0 -55 0 -55 60 0 60 0 0 91 c0 129 0
129 -120 129 l-100 0 0 -55z"/>
<path d="M910 1670 l0 -50 -138 0 c-188 0 -182 5 -182 -156 l0 -124 55 0 55 0
0 80 0 80 145 0 c185 0 185 0 185 130 l0 90 -60 0 -60 0 0 -50z"/>
<path d="M2410 1630 c0 -130 0 -130 185 -130 l145 0 0 -80 0 -80 55 0 55 0 0
124 c0 161 6 156 -182 156 l-138 0 0 50 0 50 -60 0 -60 0 0 -90z"/>
<path d="M1147 1492 c-22 -24 -21 -46 3 -117 28 -81 45 -104 93 -126 39 -17
71 -19 477 -19 406 0 438 2 477 19 48 22 65 45 93 126 25 72 25 97 2 118 -16
15 -49 17 -255 17 l-236 0 -19 -25 c-16 -20 -29 -25 -62 -25 -33 0 -46 5 -62
25 l-19 25 -238 0 c-218 0 -239 -2 -254 -18z"/>
<path d="M195 1224 c-46 -24 -63 -43 -80 -88 -14 -36 -16 -87 -13 -346 3 -298
4 -306 26 -342 38 -61 88 -78 225 -78 117 0 117 0 112 -22 -3 -13 -12 -56 -20
-96 -31 -151 -30 -152 200 -152 230 0 231 1 200 152 -8 40 -17 83 -20 96 -5
22 -5 22 112 22 137 0 187 17 225 78 22 36 23 44 26 342 4 344 0 368 -66 418
l-35 27 -431 3 c-377 2 -435 0 -461 -14z m865 -123 c6 -12 10 -98 10 -210 l0
-191 -425 0 -425 0 0 191 c0 112 4 198 10 210 10 18 26 19 415 19 389 0 405
-1 415 -19z m10 -545 c0 -68 12 -66 -425 -66 -437 0 -425 -2 -425 66 l0 34
425 0 425 0 0 -34z m-367 -203 c3 -10 8 -36 12 -58 3 -22 8 -48 11 -57 5 -16
-3 -18 -81 -18 -77 0 -86 2 -82 18 3 9 8 35 12 57 12 75 11 75 70 75 43 0 55
-4 58 -17z"/>
<path d="M800 1020 l0 -60 55 0 55 0 0 -50 0 -50 60 0 60 0 0 90 c0 123 -7
130 -135 130 l-95 0 0 -60z"/>
<path d="M2345 1224 c-46 -24 -63 -43 -80 -88 -14 -36 -16 -87 -13 -346 3
-298 4 -306 26 -342 38 -61 88 -78 225 -78 117 0 117 0 112 -22 -3 -13 -12
-56 -20 -96 -31 -151 -30 -152 200 -152 230 0 231 1 200 152 -8 40 -17 83 -20
96 -5 22 -5 22 112 22 137 0 187 17 225 78 22 36 23 44 26 342 4 344 0 368
-66 418 l-35 27 -431 3 c-377 2 -435 0 -461 -14z m865 -123 c6 -12 10 -98 10
-210 l0 -191 -425 0 -425 0 0 191 c0 112 4 198 10 210 10 18 26 19 415 19 389
0 405 -1 415 -19z m10 -545 c0 -68 12 -66 -425 -66 -437 0 -425 -2 -425 66 l0
34 425 0 425 0 0 -34z m-367 -203 c3 -10 8 -36 12 -58 3 -22 8 -48 11 -57 5
-16 -3 -18 -81 -18 -77 0 -86 2 -82 18 3 9 8 35 12 57 12 75 11 75 70 75 43 0
55 -4 58 -17z"/>
<path d="M2950 1020 l0 -60 55 0 55 0 0 -50 0 -50 60 0 60 0 0 90 c0 123 -7
130 -135 130 l-95 0 0 -60z"/>
</g>
</svg>
