<?xml version="1.0" standalone="no"?>
<!DOCTYPE svg PUBLIC "-//W3C//DTD SVG 20010904//EN"
 "http://www.w3.org/TR/2001/REC-SVG-20010904/DTD/svg10.dtd">
<svg version="1.0" xmlns="http://www.w3.org/2000/svg"
 width="64.000000pt" height="64.000000pt" viewBox="0 0 64.000000 64.000000"
 preserveAspectRatio="xMidYMid meet">
<metadata>
Created by potrace 1.16, written by Peter Selinger 2001-2019
</metadata>
<g transform="translate(0.000000,64.000000) scale(0.100000,-0.100000)"
fill="#000000" stroke="none">
<path d="M87 603 c-4 -3 -7 -25 -7 -49 0 -28 -5 -44 -15 -48 -18 -7 -20 -40
-2 -58 6 -8 20 -29 29 -47 20 -36 20 -35 -47 -87 -19 -15 -19 -15 6 -11 20 3
31 -3 49 -30 25 -36 53 -43 70 -15 10 16 10 16 20 0 6 -10 18 -18 25 -18 12 0
15 -16 15 -75 0 -62 4 -79 20 -95 31 -31 74 -26 103 11 29 37 46 32 39 -11 -2
-18 0 -30 7 -30 6 0 11 10 11 23 0 14 10 26 27 35 25 11 29 10 51 -18 28 -36
72 -40 102 -10 16 16 20 33 20 94 0 64 -3 76 -25 100 -23 25 -29 26 -125 26
-55 0 -100 4 -100 9 0 5 -13 12 -29 16 -16 3 -41 17 -55 30 -25 24 -26 24 -8
56 9 18 23 39 30 47 17 19 15 49 -6 61 -16 9 -16 12 2 45 10 19 15 39 12 45
-8 12 -208 16 -219 4z m153 -83 c0 -5 -10 -11 -22 -11 -21 -1 -21 -2 -3 -6 25
-7 44 -32 45 -59 0 -21 -60 -84 -80 -84 -20 0 -80 63 -80 84 1 27 20 52 45 59
18 4 18 5 -2 6 -13 0 -23 6 -23 11 0 6 27 10 60 10 33 0 60 -4 60 -10z m110
-280 c0 -6 30 -10 70 -10 40 0 70 4 70 10 0 14 74 12 88 -2 19 -19 15 -128 -5
-150 -24 -27 -52 -22 -71 12 -9 16 -22 30 -27 30 -6 0 -16 9 -23 20 -16 26
-48 26 -64 0 -7 -11 -17 -20 -23 -20 -5 0 -18 -14 -27 -30 -19 -34 -42 -38
-70 -13 -14 12 -18 31 -18 78 0 34 5 66 12 73 14 14 88 16 88 2z"/>
<path d="M402 590 c-62 -38 -87 -110 -62 -176 8 -19 8 -30 0 -38 -5 -5 -10
-18 -10 -28 0 -20 30 -24 48 -6 9 9 18 9 37 0 61 -28 137 -2 175 60 71 117
-71 259 -188 188z m119 -15 c35 -19 69 -70 69 -105 0 -54 -65 -120 -119 -120
-58 0 -121 63 -121 121 0 53 65 119 118 119 13 0 36 -7 53 -15z"/>
<path d="M430 555 c0 -8 -6 -12 -14 -9 -22 9 -45 -36 -42 -83 2 -45 22 -77 43
-69 7 3 13 -1 13 -9 0 -11 11 -15 40 -15 29 0 40 4 40 15 0 8 6 12 14 9 22 -9
45 36 42 83 -2 45 -22 77 -43 69 -7 -3 -13 1 -13 9 0 11 -11 15 -40 15 -29 0
-40 -4 -40 -15z m60 -20 c0 -8 8 -15 19 -15 10 0 24 -7 31 -15 9 -10 9 -15 1
-15 -6 0 -11 -9 -11 -20 0 -11 5 -20 11 -20 8 0 8 -5 -1 -15 -7 -8 -21 -15
-31 -15 -11 0 -19 -7 -19 -15 0 -8 -9 -15 -20 -15 -11 0 -20 7 -20 15 0 8 -8
15 -19 15 -10 0 -24 7 -31 15 -9 10 -9 15 -1 15 6 0 11 9 11 20 0 11 -5 20
-11 20 -8 0 -8 5 1 15 7 8 21 15 31 15 11 0 19 7 19 15 0 8 9 15 20 15 11 0
20 -7 20 -15z"/>
</g>
</svg>
